<svg width="190" height="19" viewBox="0 0 190 19" fill="none" xmlns="http://www.w3.org/2000/svg">
<path d="M1.024 11.272V9.992H5.744V11.272H1.024ZM7.78963 11.272V9.992H12.5096V11.272H7.78963ZM14.5553 11.272V9.992H19.2753V11.272H14.5553ZM21.3209 11.272V9.992H26.0409V11.272H21.3209ZM28.0865 11.272V9.992H32.8065V11.272H28.0865ZM34.8521 11.272V9.992H39.5721V11.272H34.8521ZM41.6178 11.272V9.992H46.3378V11.272H41.6178ZM48.3834 11.272V9.992H53.1034V11.272H48.3834ZM55.149 11.272V9.992H59.869V11.272H55.149ZM61.9146 11.272V9.992H66.6346V11.272H61.9146ZM68.6803 11.272V9.992H73.4003V11.272H68.6803ZM75.4459 11.272V9.992H80.1659V11.272H75.4459ZM82.2115 11.272V9.992H86.9315V11.272H82.2115ZM88.9771 11.272V9.992H93.6971V11.272H88.9771ZM95.7428 11.272V9.992H100.463V11.272H95.7428ZM102.508 11.272V9.992H107.228V11.272H102.508ZM109.274 11.272V9.992H113.994V11.272H109.274ZM116.04 11.272V9.992H120.76V11.272H116.04ZM122.805 11.272V9.992H127.525V11.272H122.805ZM129.571 11.272V9.992H134.291V11.272H129.571ZM136.337 11.272V9.992H141.057V11.272H136.337ZM143.102 11.272V9.992H147.822V11.272H143.102ZM149.868 11.272V9.992H154.588V11.272H149.868ZM156.633 11.272V9.992H161.353V11.272H156.633ZM163.399 11.272V9.992H168.119V11.272H163.399ZM170.165 11.272V9.992H174.885V11.272H170.165ZM176.93 11.272V9.992H181.65V11.272H176.93ZM183.696 11.272V9.992H188.416V11.272H183.696Z" fill="#D2D2D2"/>
</svg>
